<?xml version="1.0" standalone="no"?>
<!DOCTYPE svg PUBLIC "-//W3C//DTD SVG 20010904//EN"
 "http://www.w3.org/TR/2001/REC-SVG-20010904/DTD/svg10.dtd">
<svg version="1.0" xmlns="http://www.w3.org/2000/svg"
 width="451.000000pt" height="300.000000pt" viewBox="0 0 451.000000 300.000000"
 preserveAspectRatio="xMidYMid meet">

<g transform="translate(0.000000,300.000000) scale(0.100000,-0.100000)"
fill="#fff" stroke="none">
<path d="M104 2956 c-29 -29 -34 -41 -34 -79 0 -105 121 -155 193 -79 73 77
21 192 -86 192 -31 0 -46 -7 -73 -34z"/>
<path d="M505 2961 c-38 -10 -92 -27 -120 -39 -46 -20 -50 -26 -53 -59 -5 -77
-68 -134 -151 -137 -44 -2 -47 -4 -79 -56 -37 -63 -70 -146 -81 -207 l-8 -43
103 0 c95 0 104 2 104 19 0 10 16 49 35 87 62 124 184 219 315 245 l60 12 0
98 0 99 -27 -1 c-16 0 -59 -8 -98 -18z"/>
<path d="M4130 2800 c-101 -21 -192 -112 -206 -206 -11 -74 11 -149 56 -194
72 -72 167 -76 220 -12 17 20 30 40 30 44 0 5 -20 7 -44 7 -62 -3 -106 25
-130 84 -18 42 -19 53 -8 95 8 31 25 58 47 80 29 27 42 32 82 32 63 0 105 -26
133 -85 48 -100 2 -252 -127 -412 -128 -160 -230 -287 -261 -329 l-34 -44 237
0 c262 0 277 3 315 65 19 31 40 126 40 181 l0 33 -51 -55 c-33 -34 -65 -57
-88 -64 -43 -12 -214 -13 -209 -2 2 5 51 50 111 101 123 105 178 170 219 259
98 206 -10 407 -227 426 -33 2 -80 1 -105 -4z"/>
<path d="M665 2738 c-7 -18 -83 -188 -169 -378 l-154 -345 21 -17 c12 -10 24
-18 27 -18 3 0 19 30 34 68 16 37 34 73 39 80 7 9 52 12 184 10 l175 -3 21
-50 c30 -69 59 -115 73 -115 13 0 78 61 99 94 14 20 5 45 -128 361 l-143 340
-32 3 c-28 3 -34 -1 -47 -30z m59 -370 c36 -86 66 -161 66 -167 0 -7 -48 -11
-150 -11 l-150 0 26 58 c14 31 49 110 77 174 28 65 55 114 59 110 4 -4 36 -77
72 -164z"/>
<path d="M2045 2707 c-29 -29 -35 -42 -35 -77 0 -35 6 -48 35 -77 33 -33 39
-35 82 -30 135 15 135 199 0 214 -43 5 -49 3 -82 -30z"/>
<path d="M1338 2661 l-33 -29 25 -20 25 -20 3 -366 3 -366 79 0 80 0 0 246 0
245 45 20 c74 33 117 14 150 -64 12 -29 15 -80 15 -242 l0 -205 80 0 80 0 0
198 c0 269 -18 323 -122 366 -53 23 -164 21 -211 -3 l-37 -19 0 62 c0 96 -17
176 -41 203 -34 35 -98 32 -141 -6z"/>
<path d="M3058 2661 l-33 -29 25 -20 25 -20 3 -366 3 -366 74 0 75 0 0 240 0
240 33 20 c49 31 75 34 114 16 23 -11 40 -30 53 -59 17 -37 20 -66 20 -249 l0
-208 80 0 80 0 0 190 c0 104 -5 212 -11 240 -21 99 -93 149 -214 150 -51 0
-82 -6 -110 -20 -22 -11 -40 -20 -41 -20 -1 0 -4 54 -6 119 -3 110 -5 121 -27
145 -36 38 -99 36 -143 -3z"/>
<path d="M2525 2450 c-68 -12 -105 -53 -105 -115 0 -43 1 -45 28 -45 24 0 31
6 44 39 20 49 60 76 114 76 71 0 109 -51 116 -155 l3 -45 -95 -6 c-162 -10
-227 -44 -250 -129 -33 -123 46 -209 193 -210 70 0 96 8 134 42 21 20 21 20
59 -6 25 -17 52 -26 77 -26 l38 0 -3 218 -3 219 -30 48 c-41 66 -98 95 -196
100 -41 2 -96 0 -124 -5z m205 -379 c0 -70 -3 -83 -25 -109 -35 -42 -77 -58
-114 -43 -35 15 -51 48 -51 109 0 80 47 121 143 122 l47 0 0 -79z"/>
<path d="M2068 2422 c-33 -20 -34 -29 -10 -55 15 -17 17 -47 20 -263 l3 -244
75 0 74 0 0 223 c-1 122 -5 242 -9 267 -16 79 -87 113 -153 72z"/>
<path d="M4240 1539 c-35 -14 -66 -45 -81 -81 -12 -28 -10 -31 19 -55 18 -13
38 -34 45 -46 9 -16 13 -141 17 -479 5 -444 6 -457 26 -485 25 -34 87 -56 132
-48 18 3 47 19 65 35 l32 28 3 469 c3 497 1 528 -44 596 -42 64 -142 94 -214
66z"/>
<path d="M3040 1354 c-30 -79 17 -191 100 -235 17 -9 88 -15 215 -20 201 -6
231 -12 302 -61 109 -74 130 -260 46 -406 -48 -84 -36 -82 -480 -82 -225 0
-402 4 -417 10 -54 20 -61 47 -66 258 l-5 194 -33 29 c-27 25 -41 29 -88 29
-50 0 -59 -3 -90 -34 l-34 -34 0 -190 0 -191 -26 -20 c-64 -51 -71 -51 -901
-51 l-773 0 0 -23 c0 -53 -30 -125 -66 -156 l-35 -32 848 3 c806 3 850 4 883
22 19 10 43 25 52 33 15 13 24 11 85 -19 l68 -33 499 -3 c526 -3 595 1 672 40
138 68 220 252 212 469 -4 96 -8 113 -40 181 -62 130 -182 226 -329 264 -52
14 -91 15 -209 10 -91 -4 -167 -2 -205 5 -59 11 -135 45 -135 61 0 20 -41 6
-50 -18z"/>
<path d="M1454 211 c-90 -55 -47 -201 59 -201 63 0 106 44 107 109 0 36 -6 49
-34 77 -40 40 -83 45 -132 15z"/>
<path d="M1802 217 c-70 -40 -76 -147 -9 -187 92 -57 194 21 166 126 -17 61
-99 93 -157 61z"/>
</g>
</svg>
